<svg xmlns="http://www.w3.org/2000/svg" width="1500" height="520" viewBox="0 0 1500 520" shape-rendering="crispEdges">

  <defs>
    <linearGradient id="panelBlue" x1="0" y1="0" x2="0" y2="1">
      <stop offset="0%" stop-color="#5ea9c6"/>
      <stop offset="55%" stop-color="#3d7b99"/>
      <stop offset="100%" stop-color="#2b5770"/>
    </linearGradient>
    <linearGradient id="panelBlueDark" x1="0" y1="0" x2="0" y2="1">
      <stop offset="0%" stop-color="#397893"/>
      <stop offset="100%" stop-color="#24465b"/>
    </linearGradient>
    <linearGradient id="panelGreen" x1="0" y1="0" x2="0" y2="1">
      <stop offset="0%" stop-color="#a7c56f"/>
      <stop offset="55%" stop-color="#72974b"/>
      <stop offset="100%" stop-color="#4b6a2d"/>
    </linearGradient>
    <linearGradient id="iconBlue" x1="0" y1="0" x2="0" y2="1">
      <stop offset="0%" stop-color="#bff4ff"/>
      <stop offset="100%" stop-color="#65c9ea"/>
    </linearGradient>
    <linearGradient id="iconGreen" x1="0" y1="0" x2="0" y2="1">
      <stop offset="0%" stop-color="#edf7b2"/>
      <stop offset="100%" stop-color="#b2d06d"/>
    </linearGradient>
    <filter id="shadow" x="-10%" y="-20%" width="130%" height="160%">
      <feDropShadow dx="0" dy="4" stdDeviation="3" flood-color="#07131d" flood-opacity="0.65"/>
    </filter>
    <pattern id="noise" x="0" y="0" width="6" height="6" patternUnits="userSpaceOnUse">
      <rect width="6" height="6" fill="none"/>
      <rect x="0" y="0" width="1" height="1" fill="#ffffff" opacity="0.05"/>
      <rect x="3" y="2" width="1" height="1" fill="#ffffff" opacity="0.04"/>
      <rect x="5" y="4" width="1" height="1" fill="#000000" opacity="0.09"/>
      <rect x="1" y="5" width="1" height="1" fill="#000000" opacity="0.08"/>
    </pattern>
    <style>
      .label{font-family:'Courier New',monospace;font-size:18px;font-weight:700;letter-spacing:0.8px;fill:#e9fbff;text-transform:uppercase}
      .labelSmall{font-family:'Courier New',monospace;font-size:16px;font-weight:700;letter-spacing:0.8px;fill:#e9fbff;text-transform:uppercase}
      .labelGreen{font-family:'Courier New',monospace;font-size:18px;font-weight:700;letter-spacing:0.8px;fill:#fff9be;text-transform:uppercase}
    </style>
  </defs>

<rect width="100%" height="100%" fill="#0a1721"/><text x="40" y="52" class="label" style="font-size:28px">PIXEL SURGERY BUTTON SVG ASSETS</text><image x="40" y="90" width="280" height="86" href="undo_last.svg" /><image x="290" y="90" width="280" height="86" href="clear_all.svg" /><image x="540" y="90" width="280" height="86" href="start_disc_calibration.svg" /><image x="850" y="90" width="280" height="86" href="reset_calibration.svg" /><image x="1120" y="90" width="280" height="86" href="mini_map.svg" /><image x="40" y="210" width="280" height="86" href="end_surgery.svg" /><image x="300" y="210" width="86" height="86" href="settings.svg" /><image x="420" y="210" width="150" height="86" href="help.svg" /><text x="40" y="330" class="labelSmall" fill="#c7eaf3">UNDO LAST</text><text x="290" y="330" class="labelSmall" fill="#c7eaf3">CLEAR ALL</text><text x="540" y="330" class="labelSmall" fill="#c7eaf3">START DISC CALIBRATION</text><text x="850" y="330" class="labelSmall" fill="#c7eaf3">RESET CALIBRATION</text><text x="1120" y="330" class="labelSmall" fill="#c7eaf3">MINI-MAP</text><text x="40" y="450" class="labelSmall" fill="#c7eaf3">END SURGERY</text><text x="300" y="450" class="labelSmall" fill="#c7eaf3">SETTINGS</text><text x="420" y="450" class="labelSmall" fill="#c7eaf3">HELP</text>
</svg>
